<?xml version="1.0" encoding="utf-8" ?><svg xmlns="http://www.w3.org/2000/svg" xmlns:xlink="http://www.w3.org/1999/xlink" width="500" height="500" viewBox="0 0 500 500"><defs><linearGradient id="gradient_0" gradientUnits="userSpaceOnUse" x1="485.53299" y1="673.10406" x2="534.0495" y2="177.65921"><stop offset="0" stop-color="#BE9C5E"/><stop offset="1" stop-color="#DABD8B"/></linearGradient></defs><path fill="url(#gradient_0)" transform="scale(0.488281 0.488281)" d="M512.17 174.178C519.76 177.953 533.5 186.911 541.238 191.635L589.008 220.487L628.177 244.318C633.319 247.438 644.534 253.816 649.01 257.244C655.134 260.26 672.638 270.787 678.547 274.713C692.113 282.423 705.327 291.086 718.77 299.032C721.832 300.842 724.995 302.781 727.94 304.772C728.467 386.072 727.177 467.869 728.044 549.097C676.151 580.493 624.031 611.514 571.689 642.157L528.836 667.666C523.924 670.577 517.885 674.26 512.685 676.91C512.18 677.168 509.583 676.565 508.834 676.408C504.323 675.205 496.79 674.916 493.469 673.284C487.353 670.279 480.678 665.908 474.614 662.519L423.696 633.659L279.019 552.105L278.938 407.083C278.88 374.514 279.464 339.53 278.638 307.229C282.235 304.381 286.853 301.898 290.867 299.572C291.938 298.896 293.365 298.123 294.487 297.476C308.896 288.113 329.386 277.106 344.71 268.421L423.865 223.428L476.98 193.32C487.065 187.577 501.984 178.695 512.17 174.178Z"/><defs><linearGradient id="gradient_1" gradientUnits="userSpaceOnUse" x1="499.97534" y1="599.67865" x2="519.25031" y2="317.4967"><stop offset="0" stop-color="#1E2B3E"/><stop offset="1" stop-color="#53565F"/></linearGradient></defs><path fill="url(#gradient_1)" transform="scale(0.488281 0.488281)" d="M497.431 245.481L497.701 246.511C496.484 247.081 497.06 246.77 495.969 247.44L495.869 247.938C496.867 247.932 497.527 247.942 498.502 248.521C520.834 261.796 543.703 274.533 565.485 288.643C565.675 288.833 565.865 289.023 566.055 289.214C567.899 288.913 571.303 287.074 573.213 286.192C574.432 285.626 577.538 283.9 578.527 284.411C585.672 288.102 593.701 293.291 600.533 297.448L652.291 329.039C654.472 330.391 665.589 337.626 667.257 337.892C668.74 339.384 669.08 339.307 669.2 341.81C669.467 340.766 669.554 339.879 669.608 338.804L670.238 338.43C673.401 342.19 674.184 353.522 674.278 358.371C674.957 355.785 674.754 354.054 675.606 351.574C676.578 352.573 677.044 355.362 678.446 357.284C678.483 360.016 678.46 363.055 678.575 365.762C678.516 371.769 678.516 377.776 678.575 383.782C678.165 390.913 678.403 400.053 678.486 407.322C676.09 409.892 674.853 410.711 671.087 410.939C669.673 411.024 663.346 410.934 662.207 410.58C660.652 410.791 654.693 411.578 653.617 412.21L654.655 412.725C655.083 415.476 655.039 418.662 654.979 421.466C654.767 431.395 655.257 441.519 654.971 451.424L669.566 451.398L669.16 452.791C669.635 454.925 669.251 455.007 670.568 455.966C671.462 455.95 672.808 455.709 673.214 456.252C676.214 460.262 675.198 476.422 674.894 481.396C669.751 481.647 664.609 481.925 659.469 482.23C657.784 482.526 655.906 482.811 654.251 483.153C645.574 485.64 639.494 491.354 635.197 499.187C634.408 500.648 633.76 502.18 633.262 503.764C629.505 510.345 630.919 521.304 632.795 528.308C633.152 529.624 633.535 530.933 633.944 532.234C609.31 546.973 584.545 561.49 559.65 575.783C545.982 583.762 526.288 596.08 512.427 602.649C512.225 602.261 512.023 601.874 511.821 601.486C503.095 596.382 494.108 591.726 485.294 586.797C467.388 576.783 449.787 566.209 431.805 556.319C428.757 554.643 425.71 552.747 422.559 551.295C411.677 545.192 400.83 539.029 390.017 532.805C385.074 530.003 376.926 525.818 372.502 522.84C369.571 521.665 360.804 516.502 357.532 514.663C358.516 482.304 357.687 445.387 357.655 412.785L357.667 361.086C357.675 356.831 358.351 337.17 356.992 335.119C355.83 335.808 354.482 336.556 353.379 337.305C351.217 338.421 349.085 339.596 346.986 340.828C346.76 337.456 346.63 336.039 346.992 332.664C346.426 332.144 346.006 332.143 345.276 331.919L345.114 330.722C349.366 326.816 360.229 321.314 365.532 318.37C374.22 313.546 383.564 308.781 391.857 303.283C395.943 301.406 400.23 298.412 404.498 296.318C411.479 291.862 429.918 280.934 437.004 277.784C440.116 275.464 448.115 270.939 451.612 269.4C463.748 262.47 476.28 255.039 488.463 248.353C491.238 248.488 494.842 246.655 497.431 245.481Z"/><defs><linearGradient id="gradient_2" gradientUnits="userSpaceOnUse" x1="498.17856" y1="523.50317" x2="521.28656" y2="380.91663"><stop offset="0" stop-color="#323949"/><stop offset="1" stop-color="#50545D"/></linearGradient></defs><path fill="url(#gradient_2)" transform="scale(0.488281 0.488281)" d="M573.213 286.192C574.432 285.626 577.538 283.9 578.527 284.411C585.672 288.102 593.701 293.291 600.533 297.448L652.291 329.039C654.472 330.391 665.589 337.626 667.257 337.892C668.74 339.384 669.08 339.307 669.2 341.81C669.467 340.766 669.554 339.879 669.608 338.804L670.238 338.43C673.401 342.19 674.184 353.522 674.278 358.371C674.957 355.785 674.754 354.054 675.606 351.574C676.578 352.573 677.044 355.362 678.446 357.284C678.483 360.016 678.46 363.055 678.575 365.762C678.516 371.769 678.516 377.776 678.575 383.782C678.165 390.913 678.403 400.053 678.486 407.322C676.09 409.892 674.853 410.711 671.087 410.939C669.673 411.024 663.346 410.934 662.207 410.58C660.652 410.791 654.693 411.578 653.617 412.21L654.655 412.725C655.083 415.476 655.039 418.662 654.979 421.466C654.767 431.395 655.257 441.519 654.971 451.424L629.023 451.365C623.284 451.793 613.772 453.026 608.115 454.174L606.586 454.717C606.578 457.649 606.742 467.343 605.94 469.521L604.553 470.75C604.678 471.694 604.567 471.561 604.955 472.388C586.978 483.831 565.417 495.716 546.88 506.611L524.2 519.95C520.823 521.935 514.549 525.84 511.18 527.339L508.619 527.972C504.39 523.904 488.037 515.04 482.586 511.741C463.141 499.974 441.336 488.942 422.425 476.452C422.429 466.167 424.155 376.736 422.101 373.191C420.101 374.45 419.399 374.191 417.205 373.648L416.779 373.538C447.967 355.514 479.251 337.657 510.631 319.97L544.25 300.59C550.439 297.064 559.532 291.607 566.055 289.214C567.899 288.913 571.303 287.074 573.213 286.192Z"/><path fill="#FEFEFE" transform="scale(0.488281 0.488281)" d="M578.894 335.407C594.681 345.065 610.921 354.299 627.008 363.467C627.65 363.833 628.44 372.352 628.57 373.603C628.517 384.283 628.634 395.327 628.433 405.973L655.248 406.168C657.752 406.188 665.854 406.497 667.792 406.049L668.165 406.984C667.079 408.41 664.754 408.407 662.654 408.776C664.432 408.979 664.78 408.872 666.202 410.093C664.126 409.935 664.219 409.958 662.207 410.58C660.652 410.791 654.693 411.578 653.617 412.21L654.655 412.725C655.083 415.476 655.039 418.662 654.979 421.466C654.767 431.395 655.257 441.519 654.971 451.424L629.023 451.365C623.284 451.793 613.772 453.026 608.115 454.174L607.472 452.059C605.396 451.028 582.643 451.498 578.596 451.541C571.553 451.429 555.139 451.401 549.134 454.197L548.805 454.753C547.062 457.648 546.835 458.134 543.769 459.541C537.014 462.643 530.746 466.965 524.269 470.565C519.436 473.251 514.094 477.023 509.071 479.172C508.008 477.367 498.75 472.511 496.153 471.073C493.266 468.975 469.945 455.435 467.618 454.845C466.753 452.381 467.039 445.255 467.061 442.292L467.288 416.509C467.318 412.895 467.529 404.214 466.995 400.901C474.337 396.175 484.416 390.802 492.206 386.318L538.605 359.647C546.395 355.221 556.069 350.08 563.423 345.251C565.535 341.539 574.68 337.553 578.894 335.407Z"/><path fill="#1C202B" transform="scale(0.488281 0.488281)" d="M578.894 335.407C594.681 345.065 610.921 354.299 627.008 363.467C627.65 363.833 628.44 372.352 628.57 373.603C628.517 384.283 628.634 395.327 628.433 405.973L655.248 406.168C657.752 406.188 665.854 406.497 667.792 406.049L668.165 406.984C667.079 408.41 664.754 408.407 662.654 408.776C664.432 408.979 664.78 408.872 666.202 410.093C664.126 409.935 664.219 409.958 662.207 410.58C660.652 410.791 654.693 411.578 653.617 412.21C648.881 412.696 608.224 412.805 606.758 412.087L606.344 409.647C603.38 408.261 594.624 411.991 590.472 412.184C585.259 412.426 580.129 412.262 574.939 412.198C566.036 412.048 557.131 411.994 548.227 412.039L548.243 406.335C540.296 402.035 524.451 391.951 516.901 386.779C519.784 385.21 522.644 383.599 525.48 381.948C532.83 377.566 554.063 364.36 560.675 362.842C565.456 361.193 570.258 359.073 575.055 357.452C576.838 356.85 577.061 357.165 578.402 357.847C581.994 359.868 603.449 372.381 605.279 374.354C606.08 373.259 605.931 373.121 606.023 371.716C604.709 369.097 568.731 348.353 563.423 345.251C565.535 341.539 574.68 337.553 578.894 335.407Z"/><path fill="#565A63" transform="scale(0.488281 0.488281)" d="M578.402 357.847C581.994 359.868 603.449 372.381 605.279 374.354L605.017 374.996C605.173 375.195 605.337 375.388 605.486 375.593C607.572 378.464 606.469 400.712 606.459 405.705C598.37 404.343 575.749 404.912 566.863 405.453C566.951 401.93 567.038 400.275 567.599 396.798C562.137 392.762 548.102 384.967 541.904 381.25C547.375 377.789 575.166 361.422 579.577 360.397L580.552 359.974C579.379 359.229 579.196 358.991 578.402 357.847Z"/><path fill="#1A263C" transform="scale(0.488281 0.488281)" d="M606.459 405.705C603.19 406.565 575.124 406.193 569.381 406.338C573.561 407.133 597.699 405.788 599.255 406.913C595.367 407.916 579.662 405.899 574.446 407.251C566.982 406.954 564.596 407.995 566.45 400.395C567.377 396.595 540.153 385.291 539.833 380.645L541.904 381.25C548.102 384.967 562.137 392.762 567.599 396.798C567.038 400.275 566.951 401.93 566.863 405.453C575.749 404.912 598.37 404.343 606.459 405.705Z"/><path fill="#222223" transform="scale(0.488281 0.488281)" d="M525.48 381.948C532.83 377.566 554.063 364.36 560.675 362.842C557.055 369.737 534.111 382.626 525.48 381.948Z"/><path fill="#777A82" transform="scale(0.488281 0.488281)" d="M539.833 380.645C547.948 374.898 567.167 365.038 576.463 359.474C577.436 358.892 578.587 359.83 579.577 360.397C575.166 361.422 547.375 377.789 541.904 381.25L539.833 380.645Z"/><defs><linearGradient id="gradient_3" gradientUnits="userSpaceOnUse" x1="562.51697" y1="420.63208" x2="543.22491" y2="292.30301"><stop offset="0" stop-color="#3B414E"/><stop offset="1" stop-color="#79797C"/></linearGradient></defs><path fill="url(#gradient_3)" transform="scale(0.488281 0.488281)" d="M579.319 285.779C583.503 288.856 589.663 292.257 594.228 295.084C604.958 301.794 615.762 308.386 626.636 314.858C639.629 322.684 654.361 332.754 667.548 339.712C667.176 353.594 667.474 368.071 667.492 382.003C667.5 388.37 667.189 400.255 667.792 406.049C665.854 406.497 657.752 406.188 655.248 406.168L628.433 405.973C628.634 395.327 628.517 384.283 628.57 373.603C628.44 372.352 627.65 363.833 627.008 363.467C610.921 354.299 594.681 345.065 578.894 335.407C574.68 337.553 565.535 341.539 563.423 345.251C556.069 350.08 546.395 355.221 538.605 359.647L492.206 386.318C484.416 390.802 474.337 396.175 466.995 400.901C465.731 399.864 466.006 400.506 465.855 399.07C467.597 396.424 478.68 390.957 482.282 388.56L482.673 388.297L482.858 387.689C483.756 386.953 483.511 387.384 483.778 386.52C481.748 386.182 478.031 381.635 473 380.28C465.248 378.192 458.242 378.312 450.797 374.979C445.306 372.52 445.162 369.531 439.903 368.926L439.327 368.162C439.919 365.681 447.38 363.561 449.624 360.299C475.678 344.447 503.79 329.65 530.102 313.993C540.804 307.624 552.638 301.508 563 294.736C568.362 291.806 574.043 288.814 579.319 285.779Z"/><path fill="#262E3C" transform="scale(0.488281 0.488281)" d="M580.188 332.618C596.239 342.754 613.377 351.588 629.071 361.63C628.979 365.658 628.93 369.585 628.57 373.603C628.44 372.352 627.65 363.833 627.008 363.467C610.921 354.299 594.681 345.065 578.894 335.407C574.68 337.553 565.535 341.539 563.423 345.251C556.069 350.08 546.395 355.221 538.605 359.647L492.206 386.318C484.416 390.802 474.337 396.175 466.995 400.901C465.731 399.864 466.006 400.506 465.855 399.07C467.597 396.424 478.68 390.957 482.282 388.56L482.673 388.297C490.272 384.635 501.382 377.519 509.121 373.168L580.188 332.618Z"/><path fill="#1C202B" transform="scale(0.488281 0.488281)" d="M573.213 286.192C574.432 285.626 577.538 283.9 578.527 284.411C585.672 288.102 593.701 293.291 600.533 297.448L652.291 329.039C654.472 330.391 665.589 337.626 667.257 337.892C668.74 339.384 669.08 339.307 669.2 341.81C669.467 340.766 669.554 339.879 669.608 338.804L670.238 338.43C673.401 342.19 674.184 353.522 674.278 358.371C674.957 355.785 674.754 354.054 675.606 351.574C676.578 352.573 677.044 355.362 678.446 357.284C678.483 360.016 678.46 363.055 678.575 365.762C678.516 371.769 678.516 377.776 678.575 383.782C678.165 390.913 678.403 400.053 678.486 407.322C676.09 409.892 674.853 410.711 671.087 410.939C669.673 411.024 663.346 410.934 662.207 410.58C664.219 409.958 664.126 409.935 666.202 410.093C664.78 408.872 664.432 408.979 662.654 408.776C664.754 408.407 667.079 408.41 668.165 406.984L667.792 406.049C667.189 400.255 667.5 388.37 667.492 382.003C667.474 368.071 667.176 353.594 667.548 339.712C654.361 332.754 639.629 322.684 626.636 314.858C615.762 308.386 604.958 301.794 594.228 295.084C589.663 292.257 583.503 288.856 579.319 285.779C574.043 288.814 568.362 291.806 563 294.736C554.572 294.69 549.951 300.537 542.706 304.269C527.901 311.895 513.67 320.372 499.271 328.709L451.991 355.697C441.397 361.696 433.535 365.625 423.208 372.492C423.577 375.704 422.953 370.861 423.623 373.919C424.469 377.779 423.674 381.494 424.554 385.697C424.569 385.882 424.596 386.066 424.599 386.251C424.614 387.108 424.649 386.757 424.314 387.429C423.49 389.078 423.464 391.698 423.391 393.522C422.934 405.093 423.504 416.96 423.497 428.563C423.492 437.023 422.766 446.139 423.43 454.53C423.634 457.118 424.985 459.54 425.06 462.105C425.171 465.874 423.354 472.754 424.936 476.077C426.163 478.651 487.206 512.901 491.852 515.576C496.984 518.532 507.383 523.192 511.18 527.339L508.619 527.972C504.39 523.904 488.037 515.04 482.586 511.741C463.141 499.974 441.336 488.942 422.425 476.452C422.429 466.167 424.155 376.736 422.101 373.191C420.101 374.45 419.399 374.191 417.205 373.648L416.779 373.538C447.967 355.514 479.251 337.657 510.631 319.97L544.25 300.59C550.439 297.064 559.532 291.607 566.055 289.214C567.899 288.913 571.303 287.074 573.213 286.192Z"/><path fill="#352A16" transform="scale(0.488281 0.488281)" d="M669.2 341.81C669.467 340.766 669.554 339.879 669.608 338.804L670.238 338.43C673.401 342.19 674.184 353.522 674.278 358.371C674.957 355.785 674.754 354.054 675.606 351.574C676.578 352.573 677.044 355.362 678.446 357.284C678.483 360.016 678.46 363.055 678.575 365.762C678.516 371.769 678.516 377.776 678.575 383.782C678.165 390.913 678.403 400.053 678.486 407.322C676.09 409.892 674.853 410.711 671.087 410.939C669.673 411.024 663.346 410.934 662.207 410.58C664.219 409.958 664.126 409.935 666.202 410.093C667.959 409.499 667.898 409.84 668.84 408.595C669.615 387.506 667.892 362.073 669.2 341.81Z"/><path fill="#4D3C1C" transform="scale(0.488281 0.488281)" d="M674.278 358.371C674.957 355.785 674.754 354.054 675.606 351.574C676.578 352.573 677.044 355.362 678.446 357.284C678.483 360.016 678.46 363.055 678.575 365.762C678.516 371.769 678.516 377.776 678.575 383.782C678.165 390.913 678.403 400.053 678.486 407.322C676.09 409.892 674.853 410.711 671.087 410.939C669.673 411.024 663.346 410.934 662.207 410.58C664.219 409.958 664.126 409.935 666.202 410.093C667.959 409.499 667.898 409.84 668.84 408.595L669.581 406.794L670.237 407.014C672.208 406.474 674.175 404.651 674.307 402.604C675.241 388.054 673.345 372.939 674.278 358.371Z"/><path fill="#262E3C" transform="scale(0.488281 0.488281)" d="M509.071 479.172C514.094 477.023 519.436 473.251 524.269 470.565C530.746 466.965 537.014 462.643 543.769 459.541C546.835 458.134 547.062 457.648 548.805 454.753L549.134 454.197C555.139 451.401 571.553 451.429 578.596 451.541C574.519 452.935 570.087 451.592 567.75 452.671L568.37 453.05C568.085 453.466 567.542 454.207 567.324 454.624L567.431 456.065C564.413 457.117 552.851 464.076 549.566 466.047C539.172 472.287 527.919 478.419 517.717 484.875C514.452 483.225 512.093 482.08 509.065 480.022C508.966 479.27 508.853 479.53 509.071 479.172Z"/><path fill="#262E3C" transform="scale(0.488281 0.488281)" d="M424.554 385.697C423.674 381.494 424.469 377.779 423.623 373.919C422.953 370.861 423.577 375.704 423.208 372.492C433.535 365.625 441.397 361.696 451.991 355.697L499.271 328.709C513.67 320.372 527.901 311.895 542.706 304.269C549.951 300.537 554.572 294.69 563 294.736C552.638 301.508 540.804 307.624 530.102 313.993C503.79 329.65 475.678 344.447 449.624 360.299C441.961 364.346 433.845 369.743 426.34 373.448C425.62 399.633 426.161 426.042 425.99 452.25C425.941 459.733 426.666 467.537 426.566 474.932C427.659 475.512 430.342 476.839 431.25 477.453L430.555 477.545L431.803 478.015C429.169 477.21 428.116 476.555 425.722 475.269C426.372 468.062 425.012 456.977 425.004 448.8L424.971 397.591C424.999 391.712 425.847 379.791 425.161 374.733C424.699 377.869 424.698 382.373 424.554 385.697Z"/><path fill="#565A63" transform="scale(0.488281 0.488281)" d="M567.431 456.065L567.642 456.828C564.549 460.065 523.544 483.21 517.642 486.488C514.56 484.836 502.778 478.687 500.51 476.76C499.065 472.831 497.29 475.121 496.153 471.073C498.75 472.511 508.008 477.367 509.071 479.172C508.853 479.53 508.966 479.27 509.065 480.022C512.093 482.08 514.452 483.225 517.717 484.875C527.919 478.419 539.172 472.287 549.566 466.047C552.851 464.076 564.413 457.117 567.431 456.065Z"/><path fill="#777A82" transform="scale(0.488281 0.488281)" d="M578.596 451.541C582.643 451.498 605.396 451.028 607.472 452.059L608.115 454.174L606.586 454.717C603.084 455.077 593.363 454.904 589.323 454.834C583.572 454.735 572.615 455.301 567.324 454.624C567.542 454.207 568.085 453.466 568.37 453.05L567.75 452.671C570.087 451.592 574.519 452.935 578.596 451.541Z"/><path fill="#1A263C" transform="scale(0.488281 0.488281)" d="M578.596 451.541C582.643 451.498 605.396 451.028 607.472 452.059C605.432 454.126 573.837 453.01 568.37 453.05L567.75 452.671C570.087 451.592 574.519 452.935 578.596 451.541Z"/><path fill="#565A63" transform="scale(0.488281 0.488281)" d="M467.618 454.845C469.945 455.435 493.266 468.975 496.153 471.073C497.29 475.121 499.065 472.831 500.51 476.76C496.554 475.013 468.501 458.474 465.795 456.042L465.906 455.26L467.044 455.21L467.618 454.845Z"/><path fill="#FEFEFE" transform="scale(0.488281 0.488281)" d="M497.431 245.481L497.701 246.511C496.484 247.081 497.06 246.77 495.969 247.44L495.869 247.938C496.867 247.932 497.527 247.942 498.502 248.521C520.834 261.796 543.703 274.533 565.485 288.643C565.675 288.833 565.865 289.023 566.055 289.214C559.532 291.607 550.439 297.064 544.25 300.59L510.631 319.97C479.251 337.657 447.967 355.514 416.779 373.538L417.205 373.648C419.399 374.191 420.101 374.45 422.101 373.191C424.155 376.736 422.429 466.167 422.425 476.452C441.336 488.942 463.141 499.974 482.586 511.741C488.037 515.04 504.39 523.904 508.619 527.972L511.18 527.339C514.549 525.84 520.823 521.935 524.2 519.95L546.88 506.611C565.417 495.716 586.978 483.831 604.955 472.388C606.099 475.585 605.016 481.38 605.778 485.354C602.278 488.657 504.383 545.254 502.638 545.349C501.225 543.614 488.181 536.397 485.39 534.818C482.066 534.572 482.238 532.258 478.974 534.282C474.21 532.661 469.501 528.928 465.081 526.403C459.304 523.103 401.145 489.999 400.383 488.754L400.804 488.03L403.115 487.611C402.374 484.3 402.623 462.178 402.623 457.576L402.626 389.303C402.644 384.595 403.204 369.207 402.25 365.261C401.424 364.3 401.488 364.222 401.062 363.001C401.869 360.682 429.522 345.985 433.89 343.091L434.232 342.861C435.589 340.276 441.741 338.493 442.499 336.771C438.53 335.378 441.809 331.932 437.749 328.633C428.877 321.424 417.882 319.106 410.197 311.039L409.759 310.574C408.626 310.767 407.496 310.972 406.368 311.19C412.178 307.386 418.506 304.259 424.463 300.72C440.229 291.352 457.084 282.677 472.686 273.186L472.931 271.422C467.287 271.495 368.609 327.539 356.992 335.119C355.83 335.808 354.482 336.556 353.379 337.305C351.217 338.421 349.085 339.596 346.986 340.828C346.76 337.456 346.63 336.039 346.992 332.664C346.426 332.144 346.006 332.143 345.276 331.919L345.114 330.722C349.366 326.816 360.229 321.314 365.532 318.37C374.22 313.546 383.564 308.781 391.857 303.283C395.943 301.406 400.23 298.412 404.498 296.318C411.479 291.862 429.918 280.934 437.004 277.784C440.116 275.464 448.115 270.939 451.612 269.4C463.748 262.47 476.28 255.039 488.463 248.353C491.238 248.488 494.842 246.655 497.431 245.481Z"/><defs><linearGradient id="gradient_4" gradientUnits="userSpaceOnUse" x1="446.54721" y1="338.27292" x2="472.82751" y2="274.13422"><stop offset="0" stop-color="#5E5F66"/><stop offset="1" stop-color="#75777C"/></linearGradient></defs><path fill="url(#gradient_4)" transform="scale(0.488281 0.488281)" d="M472.686 273.186C475.041 274.566 479.473 277.465 481.715 278.21L482.954 277.844C486.826 280.2 510.077 294.084 512.524 296.183L512.166 298.205L460.494 327.838C452.793 332.273 441.919 339.04 434.232 342.861C435.589 340.276 441.741 338.493 442.499 336.771C438.53 335.378 441.809 331.932 437.749 328.633C428.877 321.424 417.882 319.106 410.197 311.039L409.759 310.574C408.626 310.767 407.496 310.972 406.368 311.19C412.178 307.386 418.506 304.259 424.463 300.72C440.229 291.352 457.084 282.677 472.686 273.186Z"/><path fill="#222223" transform="scale(0.488281 0.488281)" d="M416.779 373.538L417.205 373.648C419.399 374.191 420.101 374.45 422.101 373.191C424.155 376.736 422.429 466.167 422.425 476.452C441.336 488.942 463.141 499.974 482.586 511.741C488.037 515.04 504.39 523.904 508.619 527.972C505.023 527.873 498.591 529.047 495.023 529.698C487.187 525.866 477.464 519.698 469.701 515.348C449.112 503.81 428.378 490.838 407.436 480.038L407.353 378.646C410.387 377.114 413.758 375.178 416.779 373.538Z"/><path fill="#262E3C" transform="scale(0.488281 0.488281)" d="M512.524 296.183C514.047 297.109 514.89 297.328 515.77 298.711C513.458 301.106 498.49 309.411 494.821 311.538L430.729 348.504C426.077 351.175 405.298 362.709 402.25 365.261C401.424 364.3 401.488 364.222 401.062 363.001C401.869 360.682 429.522 345.985 433.89 343.091L434.232 342.861C441.919 339.04 452.793 332.273 460.494 327.838L512.166 298.205L512.524 296.183Z"/><path fill="#C39F5F" transform="scale(0.488281 0.488281)" d="M437.004 277.784C440.116 275.464 448.115 270.939 451.612 269.4C450.287 271.373 445.049 275.73 442.975 276.785L422.573 288.585C419.669 290.255 414.461 293.452 411.559 294.75C402.338 300.529 391.535 306.405 381.995 311.851L380.936 313.661L359.155 326.139C356.597 327.598 349.417 331.814 346.992 332.664C346.426 332.144 346.006 332.143 345.276 331.919L345.114 330.722C349.366 326.816 360.229 321.314 365.532 318.37C374.22 313.546 383.564 308.781 391.857 303.283C395.943 301.406 400.23 298.412 404.498 296.318C411.479 291.862 429.918 280.934 437.004 277.784Z"/><defs><linearGradient id="gradient_5" gradientUnits="userSpaceOnUse" x1="364.1813" y1="322.25665" x2="362.95724" y2="320.10925"><stop offset="0" stop-color="#7E6A43"/><stop offset="1" stop-color="#DAB067"/></linearGradient></defs><path fill="url(#gradient_5)" transform="scale(0.488281 0.488281)" d="M381.995 311.851L380.936 313.661L359.155 326.139C356.597 327.598 349.417 331.814 346.992 332.664C346.426 332.144 346.006 332.143 345.276 331.919L345.114 330.722C349.02 329.503 358.393 322.372 362.967 320.711L363.531 321.739C365.001 321.573 379.222 313.302 381.995 311.851Z"/><path fill="#565A63" transform="scale(0.488281 0.488281)" d="M403.115 487.611C406.199 488.717 427.281 501.15 430.978 503.359C448.882 514.056 467.61 524.109 485.39 534.818C482.066 534.572 482.238 532.258 478.974 534.282C474.21 532.661 469.501 528.928 465.081 526.403C459.304 523.103 401.145 489.999 400.383 488.754L400.804 488.03L403.115 487.611Z"/><path fill="#7C663F" transform="scale(0.488281 0.488281)" d="M497.431 245.481L497.701 246.511C496.484 247.081 497.06 246.77 495.969 247.44L495.869 247.938C492.287 250.274 488.362 252.471 484.608 254.526C449.749 273.613 415.728 294.514 380.936 313.661L381.995 311.851C391.535 306.405 402.338 300.529 411.559 294.75C414.461 293.452 419.669 290.255 422.573 288.585L442.975 276.785C445.049 275.73 450.287 271.373 451.612 269.4C463.748 262.47 476.28 255.039 488.463 248.353C491.238 248.488 494.842 246.655 497.431 245.481Z"/><path fill="#262E3C" transform="scale(0.488281 0.488281)" d="M472.931 271.422C476.227 273.754 479.519 275.738 482.954 277.844L481.715 278.21C479.473 277.465 475.041 274.566 472.686 273.186L472.931 271.422Z"/><path fill="#262E3C" transform="scale(0.488281 0.488281)" d="M605.778 485.354C607.749 486.751 608.969 487.385 610.977 488.607C616.481 488.196 616.747 487.554 622.585 487.87C620.101 489.355 617.485 491.042 614.854 492.191C593.15 505.274 570.079 518.499 548.142 531.293L526.939 543.624C523.137 545.869 514.813 551.575 511.104 551.659C508.117 549.556 505.144 548.364 502.402 545.924L502.638 545.349C504.383 545.254 602.278 488.657 605.778 485.354Z"/><path fill="#1A263C" transform="scale(0.488281 0.488281)" d="M511.104 551.659L511.228 551.458C512.682 549.228 520.855 544.822 523.511 543.312C552.497 526.841 581.121 509.726 610.099 493.249C611.741 492.315 613.008 492.158 614.854 492.191C593.15 505.274 570.079 518.499 548.142 531.293L526.939 543.624C523.137 545.869 514.813 551.575 511.104 551.659Z"/><path fill="#262E3C" transform="scale(0.488281 0.488281)" d="M356.992 335.119C368.609 327.539 467.287 271.495 472.931 271.422L472.686 273.186C457.084 282.677 440.229 291.352 424.463 300.72C418.506 304.259 412.178 307.386 406.368 311.19C402.023 313.155 396.922 316.409 392.659 318.759C382.103 324.576 371.367 331.441 360.715 336.939C360.243 348.312 360.84 361.05 360.811 372.607L360.84 465.829C360.827 475.887 360.752 485.944 360.616 496C360.575 501.039 360.777 507.961 360.292 512.847C358.739 508.955 360.141 489.137 359.999 484.244C359.59 470.193 360.795 340.687 359.428 337.699C358.186 341.96 358.758 360.2 358.757 365.739L358.777 424.097L358.727 485.75C358.647 495.417 358.183 504.396 358.245 514.267C361.179 515.753 370.971 520.402 372.502 522.84C369.571 521.665 360.804 516.502 357.532 514.663C358.516 482.304 357.687 445.387 357.655 412.785L357.667 361.086C357.675 356.831 358.351 337.17 356.992 335.119Z"/><path fill="#1C202B" transform="scale(0.488281 0.488281)" d="M608.115 454.174C613.772 453.026 623.284 451.793 629.023 451.365L628.487 454.153C628.628 461.291 627.671 478.712 629.319 484.327C628.899 484.524 626.495 485.685 626.219 485.76L622.585 487.87C616.747 487.554 616.481 488.196 610.977 488.607C608.969 487.385 607.749 486.751 605.778 485.354C605.016 481.38 606.099 475.585 604.955 472.388C604.567 471.561 604.678 471.694 604.553 470.75L605.94 469.521C606.742 467.343 606.578 457.649 606.586 454.717L608.115 454.174Z"/><path fill="#1A263C" transform="scale(0.488281 0.488281)" d="M610.977 488.607C614.009 485.17 619.433 485.007 623.682 485.068L623.463 485.15C624.801 486.146 624.09 485.734 626.219 485.76L622.585 487.87C616.747 487.554 616.481 488.196 610.977 488.607Z"/><path fill="#565A63" transform="scale(0.488281 0.488281)" d="M629.319 484.327L629.746 484.982C628.062 487.261 519.923 549.812 512.588 553.747C501.9 547.708 489.257 540.863 478.974 534.282C482.238 532.258 482.066 534.572 485.39 534.818C488.181 536.397 501.225 543.614 502.638 545.349L502.402 545.924C505.144 548.364 508.117 549.556 511.104 551.659C514.813 551.575 523.137 545.869 526.939 543.624L548.142 531.293C570.079 518.499 593.15 505.274 614.854 492.191C617.485 491.042 620.101 489.355 622.585 487.87L626.219 485.76C626.495 485.685 628.899 484.524 629.319 484.327Z"/><path fill="#352A16" transform="scale(0.488281 0.488281)" d="M668.743 477.985C668.72 469.329 668.73 461.435 669.16 452.791C669.635 454.925 669.251 455.007 670.568 455.966C671.462 455.95 672.808 455.709 673.214 456.252C676.214 460.262 675.198 476.422 674.894 481.396C669.751 481.647 664.609 481.925 659.469 482.23L659.432 481.425C662.292 480.971 665.033 480.847 667.918 480.658C666.282 480.44 662.63 480.25 661.61 479.421C664.062 478.748 665.526 480.042 668.157 479.233L668.743 477.985Z"/><path fill="#565A63" transform="scale(0.488281 0.488281)" d="M629.023 451.365L654.971 451.424L669.566 451.398L669.16 452.791C668.73 461.435 668.72 469.329 668.743 477.985C667.633 472.468 667.986 461.174 668 454.997C663.77 455.074 630.236 455.443 628.487 454.153L629.023 451.365Z"/><defs><linearGradient id="gradient_6" gradientUnits="userSpaceOnUse" x1="521.94653" y1="308.63843" x2="536.73822" y2="180.17575"><stop offset="0" stop-color="#E2C698"/><stop offset="1" stop-color="#FFEDC4"/></linearGradient></defs><path fill="url(#gradient_6)" transform="scale(0.488281 0.488281)" d="M513.189 176.426L598.585 227.998C609.634 234.84 620.739 241.593 631.896 248.257C635.01 250.121 646.032 257.473 649.01 257.244C655.134 260.26 672.638 270.787 678.547 274.713C675.84 276.247 674.641 278.044 672.658 280.412C663.694 291.114 652.39 297.617 644.496 309.423C647.723 312.038 657.927 316.589 658.806 318.878C660.806 320.899 677.803 330.67 680.87 332.462C680.258 338.055 680.597 343.536 680.274 349.129C679.952 354.715 678.991 360.156 678.575 365.762C678.46 363.055 678.483 360.016 678.446 357.284C677.044 355.362 676.578 352.573 675.606 351.574C674.754 354.054 674.957 355.785 674.278 358.371C674.184 353.522 673.401 342.19 670.238 338.43L669.608 338.804C669.554 339.879 669.467 340.766 669.2 341.81C669.08 339.307 668.74 339.384 667.257 337.892C665.589 337.626 654.472 330.391 652.291 329.039L600.533 297.448C593.701 293.291 585.672 288.102 578.527 284.411C577.538 283.9 574.432 285.626 573.213 286.192C571.303 287.074 567.899 288.913 566.055 289.214C565.865 289.023 565.675 288.833 565.485 288.643C543.703 274.533 520.834 261.796 498.502 248.521C497.527 247.942 496.867 247.932 495.869 247.938L495.969 247.44C497.06 246.77 496.484 247.081 497.701 246.511L497.431 245.481C494.842 246.655 491.238 248.488 488.463 248.353C476.28 255.039 463.748 262.47 451.612 269.4C448.115 270.939 440.116 275.464 437.004 277.784C429.918 280.934 411.479 291.862 404.498 296.318C400.23 298.412 395.943 301.406 391.857 303.283L391.129 303.051C392.57 302.157 403.171 296.009 403.501 295.626C403.874 292.876 405.119 290.835 405.899 287.864C404.897 287.269 404.512 287.15 404.135 286.032C401.365 277.821 391.961 273.283 385.817 267.58C383.468 265.4 383.717 265.642 382.691 262.182C382.384 261.143 382.01 260.747 380.995 260.096C378.296 258.364 379.585 257.398 376.751 255.845C373.965 255.62 374.737 257.055 372.436 256.8C419.36 230.697 465.904 202.177 513.189 176.426Z"/><defs><linearGradient id="gradient_7" gradientUnits="userSpaceOnUse" x1="533.35699" y1="285.15689" x2="536.66101" y2="239.1266"><stop offset="0" stop-color="#6D5A37"/><stop offset="1" stop-color="#8D7144"/></linearGradient></defs><path fill="url(#gradient_7)" transform="scale(0.488281 0.488281)" d="M514.155 233.483L658.806 318.878C660.806 320.899 677.803 330.67 680.87 332.462C680.258 338.055 680.597 343.536 680.274 349.129C679.952 354.715 678.991 360.156 678.575 365.762C678.46 363.055 678.483 360.016 678.446 357.284C677.044 355.362 676.578 352.573 675.606 351.574C674.754 354.054 674.957 355.785 674.278 358.371C674.184 353.522 673.401 342.19 670.238 338.43L669.608 338.804C669.554 339.879 669.467 340.766 669.2 341.81C669.08 339.307 668.74 339.384 667.257 337.892C665.589 337.626 654.472 330.391 652.291 329.039L600.533 297.448C593.701 293.291 585.672 288.102 578.527 284.411C577.538 283.9 574.432 285.626 573.213 286.192C571.303 287.074 567.899 288.913 566.055 289.214C565.865 289.023 565.675 288.833 565.485 288.643C543.703 274.533 520.834 261.796 498.502 248.521C497.527 247.942 496.867 247.932 495.869 247.938L495.969 247.44C497.06 246.77 496.484 247.081 497.701 246.511L497.431 245.481C494.842 246.655 491.238 248.488 488.463 248.353C493.567 244.883 508.35 236.348 514.155 233.483Z"/><path fill="#C39F5F" transform="scale(0.488281 0.488281)" d="M514.155 233.483L658.806 318.878C660.806 320.899 677.803 330.67 680.87 332.462C680.258 338.055 680.597 343.536 680.274 349.129C679.952 354.715 678.991 360.156 678.575 365.762C678.46 363.055 678.483 360.016 678.446 357.284C677.044 355.362 676.578 352.573 675.606 351.574C674.754 354.054 674.957 355.785 674.278 358.371C674.184 353.522 673.401 342.19 670.238 338.43L669.608 338.804C669.554 339.879 669.467 340.766 669.2 341.81C669.08 339.307 668.74 339.384 667.257 337.892C669.161 335.705 670.508 337.33 672.582 335.357C671.273 332.879 665.034 333.435 662.34 327.662C663.95 327.836 665.973 328.251 667.44 328.14C655.669 320.088 638.629 310.813 626.099 303.335C599.335 287.526 572.671 271.549 546.11 255.403C535.348 248.944 524.262 242.912 513.675 236.21C507.967 239.935 503.466 242.292 497.431 245.481C494.842 246.655 491.238 248.488 488.463 248.353C493.567 244.883 508.35 236.348 514.155 233.483Z"/><path fill="#5D4B30" transform="scale(0.488281 0.488281)" d="M662.34 327.662C663.95 327.836 665.973 328.251 667.44 328.14C670.844 330.168 674.797 332.635 678.278 334.485C678.286 342.03 678.516 349.804 678.446 357.284C677.044 355.362 676.578 352.573 675.606 351.574C674.754 354.054 674.957 355.785 674.278 358.371C674.184 353.522 673.401 342.19 670.238 338.43L669.608 338.804C669.554 339.879 669.467 340.766 669.2 341.81C669.08 339.307 668.74 339.384 667.257 337.892C669.161 335.705 670.508 337.33 672.582 335.357C671.273 332.879 665.034 333.435 662.34 327.662Z"/><path fill="#352A16" transform="scale(0.488281 0.488281)" d="M573.213 286.192C571.264 284.479 568.706 282.594 567.605 280.369C567.628 278.403 567.349 279.274 568.48 277.662C576.452 273.343 592.392 287.236 598.736 289.957C611.35 295.367 620.284 303.238 631.536 309.798C643.167 316.579 651.059 319.097 662.34 327.662C665.034 333.435 671.273 332.879 672.582 335.357C670.508 337.33 669.161 335.705 667.257 337.892C665.589 337.626 654.472 330.391 652.291 329.039L600.533 297.448C593.701 293.291 585.672 288.102 578.527 284.411C577.538 283.9 574.432 285.626 573.213 286.192Z"/><path fill="#A78954" transform="scale(0.488281 0.488281)" d="M278.638 307.229C282.235 304.381 286.853 301.898 290.867 299.572C292.588 305.419 293.466 311.954 294.055 318.045C292.845 395.754 293.996 473.653 292.975 551.175C322.33 568.204 351.873 584.907 381.598 601.282L452.695 641.918C469.255 651.27 485.924 660.401 502.498 669.72C504.699 670.958 509.083 673.037 509.546 675.564L508.834 676.408C504.323 675.205 496.79 674.916 493.469 673.284C487.353 670.279 480.678 665.908 474.614 662.519L423.696 633.659L279.019 552.105L278.938 407.083C278.88 374.514 279.464 339.53 278.638 307.229Z"/><path fill="#222223" transform="scale(0.488281 0.488281)" d="M353.379 337.305C354.482 336.556 355.83 335.808 356.992 335.119C358.351 337.17 357.675 356.831 357.667 361.086L357.655 412.785C357.687 445.387 358.516 482.304 357.532 514.663C360.804 516.502 369.571 521.665 372.502 522.84C376.926 525.818 385.074 530.003 390.017 532.805C400.83 539.029 411.677 545.192 422.559 551.295C425.71 552.747 428.757 554.643 431.805 556.319C449.787 566.209 467.388 576.783 485.294 586.797C494.108 591.726 503.095 596.382 511.821 601.486C512.023 601.874 512.225 602.261 512.427 602.649L510.794 602.45L500.936 608.255C497.701 605.996 489.747 601.734 486.04 599.594L451.93 580.148C417.111 560.381 380.875 540.036 346.424 519.832L346.394 517.609C347.685 497.595 345.11 343.797 346.986 340.828C349.085 339.596 351.217 338.421 353.379 337.305Z"/><path fill="#FEFEFE" transform="scale(0.488281 0.488281)" d="M346.394 517.609C357.943 523.447 371.132 531.244 382.539 537.649L458.757 580.726C470.162 587.091 481.99 594.654 493.661 600.292C498.405 602.584 504.756 600.145 510.794 602.45L500.936 608.255C497.701 605.996 489.747 601.734 486.04 599.594L451.93 580.148C417.111 560.381 380.875 540.036 346.424 519.832L346.394 517.609Z"/><path fill="#5D4B30" transform="scale(0.488281 0.488281)" d="M669.566 451.398C670.71 452.176 670.408 452.397 670.852 454.189C672.041 453.818 672.533 453.547 673.761 453.856C677.884 458.34 675.848 472.091 676.212 478.253C676.406 481.534 674.298 488.21 675.967 491.006C676.639 492.13 678.336 492.132 679.509 493.852C676.793 493.448 674.176 493.179 671.451 492.894C667.527 492.904 665.399 492.933 661.574 494.291C644.251 497.914 647.598 513.253 646.251 527.307C646.131 528.568 651.03 531.983 651.152 534.376C649.516 535.489 648.075 534.912 645.743 535.368C646.416 536.667 646.079 536.188 647.398 537.086C642.773 538.318 627.95 546.731 623.164 549.402C600.849 561.857 579.111 575.137 557.324 588.451C542.187 597.703 527.395 604.784 512.302 614.778C510.365 613.679 502.092 609.27 500.936 608.255L510.794 602.45L512.427 602.649C526.288 596.08 545.982 583.762 559.65 575.783C584.545 561.49 609.31 546.973 633.944 532.234C633.535 530.933 633.152 529.624 632.795 528.308C630.919 521.304 629.505 510.345 633.262 503.764C633.76 502.18 634.408 500.648 635.197 499.187C639.494 491.354 645.574 485.64 654.251 483.153C655.906 482.811 657.784 482.526 659.469 482.23C664.609 481.925 669.751 481.647 674.894 481.396C675.198 476.422 676.214 460.262 673.214 456.252C672.808 455.709 671.462 455.95 670.568 455.966C669.251 455.007 669.635 454.925 669.16 452.791L669.566 451.398Z"/><path fill="#FEFEFE" transform="scale(0.488281 0.488281)" d="M654.251 483.153C654.711 486.908 654.666 489.972 654.674 493.763C646.392 494.556 643.122 495.699 636.657 501.304C635.775 502.069 634.336 503.459 633.262 503.764C633.76 502.18 634.408 500.648 635.197 499.187C639.494 491.354 645.574 485.64 654.251 483.153Z"/><path fill="#4D3C1C" transform="scale(0.488281 0.488281)" d="M641.763 531.709C643.404 531.375 646.371 531.866 646.985 533.636C645.252 534.756 645.098 534.368 642.663 534.467C640.383 534.346 638.859 534.477 636.845 533.415L636.649 532.771C638.279 531.666 639.752 531.826 641.763 531.709Z"/><path fill="#7C663F" transform="scale(0.488281 0.488281)" d="M678.575 383.782C679.095 390.395 679.523 493.817 679.509 493.852C678.336 492.132 676.639 492.13 675.967 491.006C674.298 488.21 676.406 481.534 676.212 478.253C675.848 472.091 677.884 458.34 673.761 453.856C672.533 453.547 672.041 453.818 670.852 454.189C670.408 452.397 670.71 452.176 669.566 451.398L654.971 451.424C655.257 441.519 654.767 431.395 654.979 421.466C655.039 418.662 655.083 415.476 654.655 412.725L653.617 412.21C654.693 411.578 660.652 410.791 662.207 410.58C663.346 410.934 669.673 411.024 671.087 410.939C674.853 410.711 676.09 409.892 678.486 407.322C678.403 400.053 678.165 390.913 678.575 383.782Z"/><path fill="#D9BF8C" transform="scale(0.488281 0.488281)" d="M346.424 519.832C380.875 540.036 417.111 560.381 451.93 580.148L486.04 599.594C489.747 601.734 497.701 605.996 500.936 608.255C502.092 609.27 510.365 613.679 512.302 614.778C527.395 604.784 542.187 597.703 557.324 588.451C579.111 575.137 600.849 561.857 623.164 549.402C627.95 546.731 642.773 538.318 647.398 537.086C649.635 536.095 649.837 535.96 652.217 535.662C650.478 538.465 615.579 557.928 610.313 561.038C577.941 580.331 545.428 599.386 512.775 618.199C501.088 611.137 487.748 604.172 475.756 597.143C450.01 582.066 423.167 567.335 397.568 552.213C391.861 548.842 345.583 523.852 344.107 521.014C345.32 520.724 345.509 520.68 346.424 519.832Z"/><path fill="#A78954" transform="scale(0.488281 0.488281)" d="M661.574 494.291C665.399 492.933 667.527 492.904 671.451 492.894C663.842 496.779 655.373 498.62 652.535 507.517C651.581 510.507 651.251 527.466 652.834 530.01C653.484 531.053 667.397 538.845 669.608 539.593L668.769 540.32L669.77 539.974L669.058 540.236C668.132 540.584 668.494 540.419 667.743 540.819L668.028 541.354L668.849 541.488C673.886 541.551 674.206 540.06 678.417 538.965C695.67 534.474 698.813 512.925 687.634 500.77C686.155 499.162 684.087 497.774 682.606 495.819L682.729 495.366C690.281 501.421 694.45 504.998 695.313 515.519C695.866 522.949 693.333 530.28 688.31 535.783C677.912 547.309 662.825 545.955 652.217 535.662C649.837 535.96 649.635 536.095 647.398 537.086C646.079 536.188 646.416 536.667 645.743 535.368C648.075 534.912 649.516 535.489 651.152 534.376C651.03 531.983 646.131 528.568 646.251 527.307C647.598 513.253 644.251 497.914 661.574 494.291Z"/><path fill="#C39F5F" transform="scale(0.488281 0.488281)" d="M294.487 297.476L294.531 298.564L293.37 299.268L293.351 300.252L293.891 299.231L294.473 299.48C295.45 303.72 294.816 313.632 294.055 318.045C293.466 311.954 292.588 305.419 290.867 299.572C291.938 298.896 293.365 298.123 294.487 297.476Z"/><path fill="#F9ECC8" transform="scale(0.488281 0.488281)" d="M672.07 507.291C673.223 505.951 674.097 505.159 676.013 505.021C677.547 504.923 679.05 505.475 680.155 506.542C682.535 508.8 682.165 511.707 679.956 513.964C673.585 514.476 672.714 513.439 672.07 507.291Z"/><path fill="#D9BF8C" transform="scale(0.488281 0.488281)" d="M672.07 507.291C673.223 505.951 674.097 505.159 676.013 505.021C677.547 504.923 679.05 505.475 680.155 506.542C682.535 508.8 682.165 511.707 679.956 513.964C679.339 508.587 678.019 505.376 672.07 507.291Z"/><path fill="#1A263C" transform="scale(0.488281 0.488281)" d="M273.157 730.125C280.649 729.462 287.695 729.906 294.443 733.807C309.463 742.49 311.663 766.148 302.894 779.959C298.624 786.684 292.544 789.982 284.912 791.642C276.937 792.576 270.047 792.006 263.005 787.787C245.204 777.122 245.019 745.224 262.546 734.247C266.207 731.954 269.001 731.033 273.157 730.125ZM280.887 780.241C285.598 779.142 289.319 777.616 291.784 773.149C298.394 761.174 294.643 741.331 278.381 741.072C265.586 742.967 262.044 754.783 263.762 766.23C265.151 775.479 271.661 780.275 280.887 780.241Z"/><path fill="#1A263C" transform="scale(0.488281 0.488281)" d="M762.926 730.484C768.265 730.542 773.604 730.557 778.942 730.53L779.016 790.971L766.036 791.017L766.093 768.125C766.065 762.801 765.911 757.3 766.428 752.017C760.653 764.72 755.396 778.133 749.581 791.071C746.766 791.049 743.952 791.089 741.139 791.189C735.587 778.832 730.736 765.632 725.024 752.91C724.67 765.08 724.939 778.796 725.005 791.065C720.475 790.99 716.808 790.927 712.262 791.272L712.195 730.53C717.822 730.705 722.684 730.815 728.322 730.647C734.302 744.112 739.529 758.215 745.55 771.659C748.812 764.204 752.009 756.72 755.14 749.208C757.525 743.355 760.206 736.013 762.926 730.484Z"/><path fill="#C39F5F" transform="scale(0.488281 0.488281)" d="M574.356 809.178C592.471 809.874 626.527 802.762 620.947 835.471C620.063 840.651 615.57 844.361 611.157 846.8C614.771 854.521 619.416 862.944 623.479 870.446L610.875 870.476L609.302 870.346C606.882 868.52 598.94 852.544 596.736 848.546L587.513 848.589C587.725 855.639 587.61 863.061 587.6 870.144L574.496 870.115L574.356 809.178ZM587.506 838.104C593.162 838.136 600.695 838.92 605.327 835.694C608.214 832.109 610.104 826.906 605.896 823.509C600.791 819.387 593.634 820.038 587.509 820.222L587.506 838.104Z"/><path fill="#1A263C" transform="scale(0.488281 0.488281)" d="M317.406 730.942C335.431 731.083 369.862 724.961 363.712 756.746C362.648 762.246 358.27 765.615 353.572 768.205C357.978 775.287 362.502 783.912 366.258 791.37L355.455 791.234C354.008 791.207 353.757 791.149 352.328 790.854C349.006 788.098 342.647 774.124 340.382 769.485L330.515 769.709L330.511 791.057C326.14 791.108 321.77 791.182 317.4 791.278C316.76 772.48 317.373 749.994 317.406 730.942ZM330.631 759.893L331.196 759.843C337.893 759.295 342.592 760.663 348.586 757.419C351.778 752.814 353.045 747.158 347.679 743.63C342.613 740.299 336.284 740.877 330.518 741.033L330.631 759.893Z"/><path fill="#C39F5F" transform="scale(0.488281 0.488281)" d="M282.942 808.606C285.58 808.413 287.912 808.478 290.43 809.039C303.22 811.886 304.773 827.263 295.711 835.263C293.719 837.022 291.759 838 289.515 839.242C293.308 843.091 297.05 846.992 300.738 850.943C302.093 846.678 302.245 844.662 302.632 840.29L313.734 840.401C313.213 848.592 311.839 852.381 307.836 859.377L313.86 866.303C314.9 867.508 316.001 868.683 315.879 870.142L314.125 870.396C310.509 870.462 306.778 870.419 303.152 870.422L299.755 866.402C289.035 872.466 272.413 874.155 264.601 862.664C262.236 859.158 261.382 854.848 262.232 850.706C263.595 844.131 268.171 840.712 273.361 837.303C262.142 825.493 266.754 811.648 282.942 808.606ZM287.851 860.473C289.38 860.002 290.494 859.876 291.464 858.656C290.031 856.158 282.092 847.169 279.982 845.393C269.846 854.483 275.808 861.206 287.851 860.473ZM285.773 830.995C293.267 826.449 292.992 818.216 282.893 818.53C277.342 822.192 278.257 829.063 283.801 831.391C284.857 831.281 284.835 831.388 285.773 830.995Z"/><path fill="#C39F5F" transform="scale(0.488281 0.488281)" d="M360.313 808.594C374.874 807.677 386.357 810.473 388.762 827.214C384.597 827.025 380.255 827.199 376.073 827.294C376.011 827.115 375.949 826.937 375.886 826.758L375.59 825.965C373.215 819.512 362.177 816.936 357.99 821.449C351.149 829.6 363.049 833.184 368.79 834.019C396.318 838.023 397.622 867.274 368.347 871.057C352.421 871.328 342.269 868.259 339.778 850.584L353.076 850.517C353.814 853.408 354.557 855.8 357.306 858.02C362.209 861.979 378.706 860.72 375.769 851.286C373.954 846.841 366.775 845.665 362.686 844.803C354.697 843.119 344.717 840.19 342.414 831.275C341.335 827.097 342.435 821.053 344.787 817.435C348.393 811.889 354.235 809.96 360.313 808.594Z"/><path fill="#1A263C" transform="scale(0.488281 0.488281)" d="M573.02 729.689C587.735 728.1 596.756 734.059 600.044 748.552L586.944 748.348C586.184 746.685 585.781 744.981 584.402 743.696C580.596 739.984 572.151 739.179 568.559 743.439C566.488 745.71 566.71 750.33 569.541 751.924C577.73 756.534 587.28 754.912 594.903 761.382C607.038 771.683 599.063 788.587 584.958 791.402C582.042 791.984 579.992 792.021 577.023 792.074C562.068 791.8 554.502 787.261 551.882 772.083L564.768 771.934L564.996 772.748C566.218 777.198 567.683 778.317 571.657 780.254C581.825 785.462 596.456 772.313 580.623 767.659C569.045 764.578 550.793 762.246 553.633 745.698C555.451 735.108 563.177 731.13 573.02 729.689Z"/><path fill="#C39F5F" transform="scale(0.488281 0.488281)" d="M400.536 809.247C413.282 808.787 427.831 809.113 440.666 809.128L440.632 820.412C433.525 819.698 419.181 820.038 411.478 820.007C411.528 824.824 411.539 829.641 411.513 834.458C420.318 834.284 429.425 834.398 438.253 834.395C438.315 838.006 438.339 841.618 438.325 845.229C429.545 845.133 420.192 845.485 411.5 845.147L411.491 859.362C420.525 859.024 431.871 859.244 440.976 859.331L441.003 870.463C427.66 869.986 411.73 870.417 398.185 870.43C397.99 864.238 397.525 811.682 398.495 809.472L400.536 809.247Z"/><path fill="#1A263C" transform="scale(0.488281 0.488281)" d="M462.561 730.132C478.16 728.843 487.603 732.189 491.597 748.267C487.062 748.313 483.041 748.305 478.509 748.117C474.596 738.333 459.815 736.962 458.136 747.763C460.76 758.202 489.576 752.994 491.29 769.564C492.748 783.658 486.084 789.733 472.676 791.949C456.924 792.493 445.799 790.231 443.175 772.293C447.292 772.25 451.409 772.228 455.525 772.228C456.651 774.587 457.001 775.621 459.028 777.75C462.882 783.289 481.621 781.369 478.25 773.086C473.898 762.394 448.387 768.508 445.503 752.704C443.045 739.232 450.58 732.44 462.561 730.132Z"/><path fill="#C39F5F" transform="scale(0.488281 0.488281)" d="M513.244 809.225L526.44 809.135L526.399 834.125C526.373 839.198 526.093 843.809 526.753 849.045C528.179 860.361 540.633 862.455 548.221 855.77C552.128 852.328 551.166 839.898 551.129 834.5L550.932 809.207C554.979 809.416 559.949 809.318 564.066 809.348L563.997 821.625C563.958 831.204 565.04 845.202 563.334 854.266C559.9 872.51 531.478 876.383 519.346 863.947C516.805 861.335 515.005 858.093 514.132 854.555C512.305 847.263 513.162 818.279 513.244 809.225Z"/><path fill="#1A263C" transform="scale(0.488281 0.488281)" d="M373.943 730.559C387.038 731.194 402.743 730.993 415.871 730.652L415.776 741.501L386.721 741.544C386.883 746.021 386.837 750.916 386.888 755.429C395.764 755.35 404.64 755.361 413.516 755.463L413.514 766.3C406.27 765.755 394.022 766.039 386.704 766.275C386.631 770.919 386.689 775.563 386.878 780.203L416.332 780.264C416.244 784.006 416.25 787.749 416.35 791.49L373.534 791.503L373.518 751.392C373.52 746.51 373.288 734.868 373.943 730.559Z"/><path fill="#1A263C" transform="scale(0.488281 0.488281)" d="M806.021 730.15C821.943 728.853 830.605 732.061 834.735 748.217C830.551 748.222 826.366 748.264 822.182 748.343C818.619 740.359 810.779 737.867 803.299 743.927C802.492 744.581 801.715 746.642 802.02 747.726C803.768 753.944 811.484 754.495 816.69 755.85C824.588 757.749 834.088 760.794 835.174 770.226C836.133 778.55 833.224 785.606 825.392 789.155C821.319 791.002 819.316 791.3 814.951 791.848C800.311 792.483 789.139 788.598 786.837 772.381L799.135 772.438C800.646 775.46 800.842 776.507 803.894 778.806C809.064 782.701 824.317 781.943 821.896 772.606C820.26 767.608 813.039 766.77 808.812 765.79C799.738 763.686 791.805 762.1 789.105 751.969C787.96 747.74 788.627 743.224 790.947 739.506C794.384 733.973 799.902 731.469 806.021 730.15Z"/><path fill="#1A263C" transform="scale(0.488281 0.488281)" d="M661.387 730.64C674.383 731.253 690.166 730.933 703.235 730.668C703.127 734.477 703.186 737.964 703.276 741.777C693.766 741.62 683.989 741.779 674.441 741.73L674.231 755.514L700.532 755.471C700.196 759.759 700.097 761.806 700.375 766.065C691.73 766.019 683.085 766.057 674.441 766.18C674.32 770.906 674.227 775.633 674.162 780.36C683.925 780.355 693.687 780.279 703.448 780.132L703.483 791.48C695.084 791.501 686.684 791.478 678.284 791.409C673.239 791.343 665.911 790.978 661.202 791.489C660.635 773.841 660.826 748.352 661.387 730.64Z"/><path fill="#C39F5F" transform="scale(0.488281 0.488281)" d="M473.72 808.618C491.126 807.151 500.837 813.334 505.153 830.635C500.5 830.783 496.385 830.746 491.748 830.647C489.009 823.635 484.609 818.915 476.098 819.995C455.587 822.599 458.894 865.349 482.567 858.447C486.237 857.377 488.072 855.965 489.975 852.66C490.373 851.774 490.781 850.892 491.198 850.015C493.863 848.096 501.526 848.973 505.017 849.03C502.583 859.826 498.6 866.448 487.239 869.75C471.108 874.504 453.526 866.44 449.976 849.077C446.023 829.738 453.253 812.868 473.72 808.618Z"/><path fill="#1A263C" transform="scale(0.488281 0.488281)" d="M210.361 730.159C227.793 728.467 238.915 734.503 243.485 752.071C239.052 752.062 234.451 752.236 230.007 752.343C227.975 747.031 225.622 742.232 219.277 741.293C200.598 738.53 196.426 765.063 206.055 775.779C208.616 778.686 212.26 780.411 216.132 780.55C220.901 780.677 224.33 778.589 227.644 775.469C228.776 773.495 229.061 772.633 229.855 770.465C234.238 770.266 238.829 770.324 243.232 770.313C240.89 780.245 235.83 787.767 225.543 790.778C217.919 793.01 208.772 792.576 201.794 788.603C195.425 784.936 190.76 778.902 188.815 771.814C183.702 753.807 190.751 734.989 210.361 730.159Z"/><path fill="#C39F5F" transform="scale(0.488281 0.488281)" d="M747.849 809.061C752.683 809.184 757.788 809.096 762.645 809.091C758.596 817.153 754.006 825.05 749.501 832.865C738.414 851.858 740.274 848.324 740.468 870.38C736.03 870.362 731.592 870.382 727.154 870.44C727.209 864.39 727.922 857.273 726.923 851.352C725.55 843.213 710.16 819.113 705.65 810.052L706.024 809.374L708.117 809.249C711.696 809.119 716.005 809.274 719.638 809.312C724.509 817.405 729.168 827.556 733.733 836.153C738.231 828.322 743.591 817.273 747.849 809.061Z"/><path fill="#1A263C" transform="scale(0.488281 0.488281)" d="M536.104 730.65C540.929 730.617 545.755 730.619 550.581 730.657L538.388 752.775C527.078 773.014 527.825 767.094 528.236 791.357C523.9 791.235 519.706 791.394 515.376 791.526C514.784 779.613 517.357 773.262 510.93 762.222C505.011 752.055 498.755 741.086 493.54 730.547C498.288 730.74 503.041 730.802 507.793 730.733C512.95 739.032 516.96 748.648 521.939 757.206L536.104 730.65Z"/><path fill="#C39F5F" transform="scale(0.488281 0.488281)" d="M650.578 809.073C664.14 809.92 687.64 809.474 701.42 809.079L701.463 820.282C695.218 820.177 688.972 820.175 682.727 820.275C683.241 828.87 682.866 840.574 682.842 849.375L682.885 870.39C678.449 870.311 674.013 870.317 669.578 870.408C669.452 853.776 669.424 837.143 669.492 820.511C665.061 819.998 655.652 820.36 650.795 820.438L650.578 809.073Z"/><path fill="#1A263C" transform="scale(0.488281 0.488281)" d="M603.605 730.54C620.447 730.493 636.76 730.943 653.897 730.713L653.804 741.605C647.703 741.58 641.602 741.603 635.501 741.674L635.491 773.25L635.432 791.419C631.013 791.379 626.482 791.455 622.052 791.476L622.078 741.959C615.879 741.605 609.755 741.77 603.552 741.861C603.495 738.014 603.748 734.528 603.605 730.54Z"/><path fill="#C39F5F" transform="scale(0.488281 0.488281)" d="M630.294 809.073L643.638 809.126C643.258 829.184 643.547 850.306 643.607 870.414L630.521 870.366C630.196 850.948 629.945 828.39 630.294 809.073Z"/></svg>